Stolichani v poveche - Season 3 - Episode 14

web rip from voyo.bg

   General
      Format : MPEG-4
      Format profile : Base Media
      Codec ID : isom
      File size : 286 MiB
      Duration : 48mn 14s
      Overall bit rate : 829 Kbps
   Video #1
      ID : 1
      Format : AVC
      Format/Info : Advanced Video Codec
      Format profile : High@L3.1
      Format settings, CABAC : Yes
      Format settings, ReFrames : 4 frames
      Codec ID : avc1
      Duration : 48mn 14s
      Bit rate mode : Variable
      Bit rate : 695 Kbps
      Width : 720 pixels
      Height : 408 pixels
      Display aspect ratio : 16:9
      Frame rate mode : Constant
      Frame rate : 25.000 fps
      Color space : YUV
      Chroma subsampling : 4:2:0
      Bit depth : 8 bits
      Scan type : Progressive
      Bits/(Pixel*Frame) : 0.095
      Stream size : 240 MiB (84%)
   Audio #2
      ID : 2
      Format : AAC
      Format/Info : Advanced Audio Codec
      Format profile : LC
      Codec ID : 40
      Duration : 48mn 14s
      Bit rate mode : Constant
      Bit rate : 128 Kbps
      Channel(s) : 2 channels
      Channel positions : Front: L R
      Sampling rate : 44.1 KHz
      Compression mode : Lossy
      Stream size : 44.2 MiB (15%)